Coordinates
version=1
nRows=11
nColumns=36
inDegrees=yes

Units are S.I. units (second, meters, Newtons, ...)
If the header above contains a line with 'inDegrees', this indicates whether rotational values are in degrees (yes) or radians (no).

endheader
time	pelvis_tilt	pelvis_list	pelvis_rotation	pelvis_tx	pelvis_ty	pelvis_tz	hip_flexion_r	hip_adduction_r	hip_rotation_r	knee_angle_r	knee_angle_r_beta	ankle_angle_r	subtalar_angle_r	mtp_angle_r	hip_flexion_l	hip_adduction_l	hip_rotation_l	knee_angle_l	knee_angle_l_beta	ankle_angle_l	subtalar_angle_l	mtp_angle_l	lumbar_extension	lumbar_bending	lumbar_rotation	arm_flex_r	arm_add_r	arm_rot_r	elbow_flex_r	pro_sup_r	arm_flex_l	arm_add_l	arm_rot_l	elbow_flex_l	pro_sup_l
      1.00000000	    -11.07370802	      2.59865123	      0.87348342	     -0.74526446	      1.34619679	     -0.56819512	     26.88197568	      0.60794126	      4.83973386	     47.99992896	      0.83775680	    -12.40619901	    -16.88850683	     -5.33622248	     23.90154329	     -1.78224790	     -3.43446461	     62.03177527	      1.08265872	    -21.29136523	    -20.44808062	     -5.33622248	     -7.38462922	     -2.31826253	     -2.48462397	     64.34931498	    -28.83696468	     28.26536753	     90.61016695	    107.24386399	     74.70241304	    -20.56568645	     26.66762039	     78.06543009	    110.94135817
      1.01000000	    -10.91749494	      2.92681078	      1.58277082	     -0.73706240	      1.34925871	     -0.56848211	     27.06937130	     -0.23809125	      4.51161313	     45.62938514	      0.79638301	    -12.55498585	    -17.00799440	     -5.36031529	     26.26651827	     -1.48393410	     -2.98140273	     65.70696119	      1.14680281	    -20.64174131	    -21.46938919	     -5.36031529	     -8.17869244	     -2.65574969	     -2.89205092	     63.76341244	    -30.02002279	     27.97972074	     89.54928656	    107.19444172	     74.69822243	    -21.41900523	     26.93171529	     77.40818225	    110.90855307
      1.02000000	    -10.77534400	      3.21052288	      2.19771501	     -0.72901545	      1.35122678	     -0.56873721	     27.13558859	     -0.99079511	      4.27378346	     42.87522932	      0.74831392	    -13.98352217	    -18.30856846	     -5.45868375	     28.65277429	     -1.20129215	     -2.55549700	     69.03804883	      1.20494126	    -19.83738774	    -22.16382039	     -5.45868375	     -8.99774867	     -2.91579747	     -3.09124247	     63.26483208	    -31.30310100	     27.77533704	     88.39254404	    107.28281564	     74.82535637	    -22.48799870	     27.86315857	     76.75495686	    110.72015083
      1.03000000	    -10.52802525	      3.83775853	      2.67443190	     -0.72085898	      1.35245949	     -0.56923098	     27.10573597	     -2.18112477	      4.14226186	     40.20429233	      0.70169727	    -14.33407408	    -18.12837447	     -5.46955287	     30.70244471	     -0.44323647	     -2.31200543	     71.63903004	      1.25033695	    -19.38506587	    -22.73493370	     -5.46955287	    -10.05908968	     -3.49943874	     -3.16206897	     62.85584617	    -32.65986211	     27.53645736	     87.30068640	    107.22204688	     74.79325229	    -23.48824124	     28.14682405	     76.65526129	    110.69179613
      1.04000000	    -10.30242000	      3.88540817	      3.45673850	     -0.71249820	      1.35258467	     -0.57040570	     26.99061956	     -3.03997849	      3.11723959	     37.35667463	      0.65199697	    -15.99345291	    -17.79209861	     -5.49180460	     32.86362357	     -0.02286133	     -1.51613371	     73.99159406	      1.29139694	    -18.50348034	    -23.21321446	     -5.49180460	    -10.96965934	     -3.25375821	     -3.40271584	     62.60517481	    -34.06153706	     27.53580009	     85.92481837	    107.14760915	     74.75591941	    -24.79716037	     29.33339253	     76.30738438	    110.63695053
      1.05000000	    -10.07905489	      4.29972800	      3.95962006	     -0.70422852	      1.35171344	     -0.57139089	     26.95641127	     -4.11511310	      2.72766291	     34.75722645	      0.60662804	    -17.34575997	    -17.42331721	     -5.50633715	     34.76691666	      0.67138963	     -1.20140128	     75.52778873	      1.31820859	    -17.94327286	    -23.19219118	     -5.50633715	    -12.00653181	     -3.44348423	     -3.44234773	     62.47725836	    -35.57447017	     27.63311198	     84.59190936	    107.05086617	     74.88111450	    -25.98189257	     29.97107530	     76.21910596	    110.60497409
      1.06000000	     -9.57777492	      4.30125349	      4.42532351	     -0.69575380	      1.35011909	     -0.57241425	     26.41954569	     -4.70505903	      2.06882528	     31.80361975	      0.55507788	    -20.63339757	    -18.23721637	     -5.56610908	     36.28584282	      0.90091319	     -0.71137197	     76.61774375	      1.33723189	    -16.27961819	    -21.85107811	     -5.56610908	    -13.24363690	     -2.94383318	     -3.60215397	     63.23479811	    -36.83667881	     28.80644949	     82.73512778	    106.83196094	     75.21717438	    -28.12772838	     32.04142768	     76.21395999	    110.41333338
      1.07000000	     -9.33522655	      4.53900881	      4.81337713	     -0.68707292	      1.34733027	     -0.57375033	     26.17843608	     -5.55342828	      1.54671055	     29.01061158	      0.50633069	    -23.17645183	    -18.22126173	     -5.65987718	     37.76547012	      1.51232330	     -0.37696289	     76.82119655	      1.34078282	    -14.90833477	    -20.71847911	     -5.65987718	    -14.15630701	     -2.69974704	     -3.68282839	     63.88010393	    -38.10961098	     29.91709709	     80.89448921	    106.44078672	     75.02781757	    -30.09485201	     33.23501481	     76.74395154	    109.95116433
      1.08000000	     -9.06726964	      4.81071927	      5.10014686	     -0.67805267	      1.34371500	     -0.57506747	     25.93897811	     -6.44606361	      0.76897014	     26.34423875	      0.45979371	    -25.16138275	    -17.01694178	     -5.69789351	     38.86546378	      2.20395967	     -0.11843571	     76.13015134	      1.32872180	    -14.35752466	    -20.22552588	     -5.69789351	    -15.03755239	     -2.50207673	     -3.39987987	     64.30547948	    -39.70840894	     30.65224193	     79.42035429	    106.24060741	     75.05030485	    -31.80536453	     34.62865191	     76.97777588	    109.83467312
      1.09000000	     -8.77496567	      5.10132041	      5.22965048	     -0.66880830	      1.33922323	     -0.57587242	     25.65531909	     -7.17863353	      0.19919544	     23.69595732	      0.41357247	    -27.67428524	    -16.64932038	     -5.84353590	     39.61685147	      2.79861492	      0.06355237	     74.67375818	      1.30330295	    -13.49051100	    -18.98008990	     -5.84353590	    -15.84269983	     -2.31350583	     -3.29101982	     65.48268350	    -40.90855560	     32.59810248	     77.27401413	    105.85921122	     74.99343208	    -34.18331352	     36.19965228	     77.64433659	    109.39377674
      1.10000000	     -8.48338838	      5.49881167	      5.19679742	     -0.65923423	      1.33401368	     -0.57621199	     25.38696954	     -7.92448795	     -0.22664476	     21.18462261	      0.36974142	    -29.66680704	    -15.58148748	     -5.90348722	     39.98478314	      3.37306869	      0.07304502	     72.36596112	      1.26302429	    -13.19024924	    -18.06545501	     -5.90348722	    -16.60405448	     -2.37590642	     -2.71063416	     66.19009729	    -42.54769817	     34.00140407	     75.66673878	    105.70598078	     75.32822730	    -36.18454347	     38.34775698	     77.92757176	    109.41579790
